<?xml version="1.0" standalone="no"?>
<!DOCTYPE svg PUBLIC "-//W3C//DTD SVG 20010904//EN"
 "http://www.w3.org/TR/2001/REC-SVG-20010904/DTD/svg10.dtd">
<svg version="1.0" xmlns="http://www.w3.org/2000/svg"
 width="1200.000000pt" height="1200.000000pt" viewBox="0 0 1200.000000 1200.000000"
 preserveAspectRatio="xMidYMid meet">

<g transform="translate(0.000000,1200.000000) scale(0.100000,-0.100000)"
fill="#000000" stroke="none">
<path d="M5730 9633 c-30 -1 -118 -7 -195 -13 -812 -64 -1632 -386 -2290 -899
-182 -142 -253 -207 -475 -430 -411 -414 -700 -830 -923 -1331 -246 -553 -360
-1065 -383 -1718 l-7 -202 734 2 734 3 8 115 c8 131 74 544 112 700 101 420
311 844 580 1170 104 126 307 334 427 436 405 346 889 570 1443 666 118 20
161 22 480 22 314 0 365 -2 495 -22 156 -25 378 -77 500 -119 614 -209 1161
-632 1542 -1193 192 -283 375 -693 454 -1015 30 -124 91 -488 99 -592 3 -43 8
-98 11 -121 l5 -44 719 4 c395 1 722 6 726 10 4 5 7 97 7 205 1 604 -156 1200
-494 1871 -342 677 -862 1277 -1495 1720 -676 473 -1426 726 -2294 772 -179 9
-384 11 -520 3z m545 -103 c785 -50 1443 -258 2065 -654 435 -277 860 -670
1180 -1091 172 -226 348 -514 466 -760 223 -468 357 -879 413 -1270 33 -230
51 -523 35 -582 l-6 -23 -633 0 -632 0 -6 168 c-13 336 -83 632 -232 982 -190
446 -392 749 -714 1070 -525 525 -1132 818 -1846 894 -836 89 -1597 -108
-2226 -574 -170 -126 -445 -386 -586 -555 -262 -314 -479 -722 -591 -1115 -75
-262 -122 -569 -122 -797 l0 -83 -641 0 -642 0 7 163 c4 89 14 226 22 305 91
889 459 1729 1052 2402 130 148 400 415 527 521 570 478 1237 797 1950 933
352 67 769 91 1160 66z"/>
<path d="M5990 9355 c-22 -23 -24 -38 -41 -307 -27 -419 -27 -417 5 -445 34
-29 68 -29 102 0 25 22 28 32 35 123 4 54 8 100 9 101 0 0 22 19 49 42 l48 40
116 -174 c120 -179 137 -196 187 -180 32 10 60 46 60 76 0 19 -39 87 -119 207
l-119 179 134 112 c139 115 157 140 135 187 -12 28 -55 47 -83 38 -11 -3 -105
-80 -210 -171 l-190 -165 7 89 c4 48 7 121 8 161 2 66 0 76 -22 93 -33 27 -82
25 -111 -6z"/>
<path d="M6989 9230 c-9 -5 -21 -22 -28 -37 -18 -47 -171 -634 -171 -660 0
-29 42 -73 69 -73 40 0 70 23 85 64 26 71 166 614 166 644 0 54 -72 91 -121
62z"/>
<path d="M4723 9170 c-84 -17 -318 -105 -340 -127 -13 -12 -23 -33 -23 -46 0
-22 200 -609 221 -648 5 -11 21 -26 34 -35 23 -15 31 -14 152 26 240 80 300
119 351 229 31 66 40 169 23 253 -16 76 -70 183 -120 240 -74 83 -199 128
-298 108z m117 -170 c64 -33 118 -120 140 -223 22 -109 -9 -191 -89 -231 -55
-28 -180 -70 -187 -63 -5 5 -164 456 -164 466 0 12 184 70 223 70 21 1 55 -8
77 -19z"/>
<path d="M7475 9065 c-52 -51 -30 -92 78 -146 45 -23 84 -43 86 -45 2 -2 -53
-122 -123 -266 -144 -301 -149 -320 -85 -353 39 -21 64 -19 92 8 14 12 80 138
147 280 68 141 124 257 126 257 1 0 41 -18 89 -40 48 -22 93 -40 100 -40 7 0
24 9 39 21 29 23 36 73 14 102 -17 22 -487 247 -516 247 -13 0 -34 -11 -47
-25z"/>
<path d="M3586 8598 c-53 -48 -52 -51 149 -358 103 -157 196 -293 207 -302 11
-10 32 -18 46 -18 30 0 357 212 373 241 26 50 -8 109 -64 109 -22 0 -65 -23
-154 -82 -73 -47 -127 -77 -132 -72 -5 5 -79 115 -164 246 -85 130 -164 241
-175 247 -32 17 -58 13 -86 -11z"/>
<path d="M8330 8474 c-118 -32 -216 -118 -278 -243 -34 -69 -37 -82 -37 -160
0 -76 4 -94 32 -154 44 -93 119 -169 207 -212 105 -50 121 -51 156 -16 53 53
33 108 -49 136 -60 20 -134 83 -163 139 -30 56 -29 137 0 194 111 212 331 228
460 34 31 -48 43 -58 70 -60 41 -4 77 18 86 53 16 61 -95 203 -198 254 -103
50 -189 61 -286 35z"/>
<path d="M3115 8163 c-41 -12 -65 -31 -134 -101 -183 -190 -212 -231 -195
-277 4 -9 121 -122 261 -251 279 -256 282 -258 342 -208 52 44 44 67 -60 165
l-91 87 82 86 c46 48 93 89 106 92 24 6 54 -7 96 -42 42 -34 112 -57 151 -50
74 14 111 92 66 137 -16 16 -29 20 -55 16 -26 -4 -41 1 -72 23 -60 43 -98 60
-135 60 -34 0 -35 1 -42 47 -11 75 -34 120 -83 163 -43 39 -121 71 -166 69
-12 0 -43 -7 -71 -16z m123 -173 c37 -23 77 -99 67 -129 -3 -11 -43 -58 -88
-105 l-82 -86 -85 78 -84 79 84 91 c75 83 87 92 119 92 20 0 51 -9 69 -20z"/>
<path d="M9059 7862 c-162 -114 -468 -338 -491 -360 -44 -41 -37 -102 14 -128
40 -21 56 -14 176 74 87 62 106 72 117 61 33 -36 184 -253 180 -260 -3 -4 -50
-40 -105 -79 -55 -40 -105 -80 -110 -90 -27 -51 12 -120 67 -120 20 0 102 54
298 195 149 108 278 205 288 216 27 33 22 73 -14 103 -48 41 -56 38 -189 -59
-47 -33 -90 -64 -96 -68 -14 -8 -210 261 -198 272 5 4 48 36 96 70 132 93 155
135 103 186 -35 36 -72 32 -136 -13z"/>
<path d="M2522 7299 c-113 -36 -210 -139 -247 -263 -53 -179 46 -374 235 -465
72 -35 79 -36 185 -36 101 0 115 2 169 29 79 39 140 102 179 184 29 61 32 76
32 162 0 86 -3 101 -32 162 -91 192 -318 291 -521 227z m245 -176 c59 -27 126
-97 144 -150 18 -56 7 -145 -24 -192 -39 -59 -95 -85 -182 -86 -88 0 -166 35
-225 102 -114 130 -55 320 111 352 59 11 113 3 176 -26z"/>
<path d="M9375 6839 c-308 -123 -346 -144 -344 -192 0 -12 35 -107 77 -212 63
-154 82 -192 104 -205 35 -19 78 -4 97 34 13 27 10 38 -39 165 -29 75 -53 144
-54 154 -1 14 17 26 73 48 41 17 79 28 85 26 6 -3 31 -55 55 -117 23 -62 52
-121 62 -131 41 -41 119 -6 119 53 0 14 -20 76 -45 139 -24 62 -41 117 -37
121 9 9 143 60 147 56 2 -2 28 -65 59 -142 30 -76 63 -147 72 -157 34 -37 105
-15 118 36 7 28 -123 378 -156 421 -15 18 -28 24 -56 23 -22 -1 -161 -51 -337
-120z"/>
<path d="M2009 6341 c-36 -36 -38 -79 -6 -108 12 -11 118 -69 235 -128 118
-59 210 -111 205 -115 -4 -4 -80 -24 -168 -44 -133 -30 -164 -40 -182 -62 -13
-14 -23 -36 -23 -49 0 -35 33 -65 150 -136 58 -34 123 -74 145 -88 l40 -25
-254 -43 c-283 -47 -301 -55 -301 -120 0 -40 37 -83 73 -83 51 0 703 122 724
136 30 19 40 61 22 93 -9 15 -85 71 -178 131 l-163 104 98 27 c55 15 137 37
183 49 45 13 95 33 109 45 31 27 34 78 6 104 -29 28 -639 341 -664 341 -12 0
-35 -13 -51 -29z"/>
<path d="M9630 6029 c-303 -37 -316 -40 -337 -65 -28 -31 -29 -54 -2 -88 26
-32 29 -32 284 -1 110 14 204 25 210 25 5 0 -92 -102 -217 -227 -124 -126
-229 -238 -232 -249 -9 -30 8 -70 38 -90 24 -15 45 -14 368 25 214 26 350 47
364 56 41 27 35 96 -11 117 -24 11 -83 6 -445 -39 l-45 -5 233 233 c208 210
232 238 232 267 0 47 -38 82 -87 81 -21 -1 -180 -19 -353 -40z"/>
<path d="M6406 7661 c-18 -20 -362 -620 -376 -658 -16 -40 15 -62 90 -65 l65
-3 3 -38 3 -38 -213 6 c-521 17 -1027 -51 -1274 -172 -78 -38 -149 -99 -166
-143 -5 -14 -32 -157 -59 -320 l-50 -294 3 -271 c3 -307 4 -312 88 -396 42
-42 94 -69 160 -83 15 -3 32 -19 44 -41 61 -112 219 -172 344 -131 56 19 143
90 168 137 l15 29 697 0 697 0 20 -36 c63 -117 226 -174 357 -124 63 23 137
88 157 138 8 20 27 36 59 50 60 27 125 91 154 151 22 44 23 57 23 261 l0 215
-104 340 c-56 187 -113 358 -125 380 -43 80 -172 151 -371 205 l-100 27 -3 70
-3 71 67 4 c93 6 97 13 91 158 -5 129 -30 219 -89 318 -50 84 -161 191 -245
235 -80 42 -103 45 -127 18z m131 -145 c118 -86 201 -219 222 -353 18 -119 18
-123 -29 -123 -39 0 -40 1 -40 33 0 84 -57 227 -123 309 -25 32 -73 72 -135
114 -6 4 29 64 37 64 5 0 36 -20 68 -44z m-107 -245 c0 -28 -28 -47 -48 -34
-24 15 -27 44 -7 59 22 17 55 1 55 -25z m-123 -49 c11 -7 16 -26 14 -49 0 -7
-10 -17 -21 -23 -27 -15 -60 4 -60 33 0 38 35 59 67 39z m67 -127 c3 -8 -2
-21 -10 -29 -16 -17 -40 -12 -48 9 -3 8 2 21 10 29 16 17 40 12 48 -9z m156 0
c17 -20 5 -45 -20 -45 -23 0 -35 22 -26 45 7 19 30 19 46 0z m27 -165 l83 0 0
-66 c0 -49 -3 -65 -12 -61 -7 2 -71 12 -143 21 -253 34 -230 28 -233 59 -7 58
-2 61 115 54 58 -4 144 -7 190 -7z m-222 -230 c276 -24 521 -73 627 -126 54
-27 98 -61 98 -76 0 -4 -90 -8 -200 -8 -286 0 -290 -3 -290 -231 0 -141 12
-188 54 -212 14 -8 108 -14 301 -17 l279 -5 17 -55 16 -55 -1330 -3 c-732 -1
-1332 -1 -1333 1 -6 6 95 586 105 605 47 88 383 164 853 192 170 10 633 4 803
-10z m943 -947 l3 -33 -1355 0 -1356 0 0 35 0 35 1353 -2 1352 -3 3 -32z
m-2219 -330 c48 -37 66 -71 66 -128 0 -90 -60 -150 -149 -150 -89 1 -148 61
-148 151 0 117 140 194 231 127z m1940 -1 c99 -73 91 -211 -14 -262 -51 -25
-78 -25 -131 -1 -111 51 -113 210 -3 269 51 27 106 25 148 -6z"/>
<path d="M4839 6475 c-47 -26 -59 -69 -59 -215 0 -147 10 -184 59 -213 27 -16
86 -17 716 -17 753 0 728 -2 760 60 11 22 15 64 15 170 0 157 -9 189 -60 215
-42 22 -1391 22 -1431 0z m740 -102 c-14 -16 -72 -79 -128 -140 l-104 -113
-232 0 c-203 0 -234 2 -239 16 -3 9 -6 64 -6 124 0 60 3 115 6 124 5 14 47 16
367 16 l361 0 -25 -27z m659 -111 c2 -101 0 -134 -10 -137 -7 -3 -155 -4 -328
-3 l-314 3 69 73 c56 60 67 77 58 90 -5 9 -16 18 -24 19 -8 1 -52 -41 -99 -93
-80 -89 -86 -94 -124 -94 l-40 0 30 33 c17 17 75 80 129 140 l98 107 276 -2
276 -3 3 -133z"/>
<path d="M3080 4470 l0 -50 2875 0 2875 0 0 50 0 50 -2875 0 -2875 0 0 -50z"/>
<path d="M3715 4227 c-3 -7 -4 -78 -3 -157 l3 -145 95 0 95 0 3 26 c4 30 -15
39 -85 39 -41 0 -43 1 -43 30 0 29 1 30 50 30 38 0 52 4 60 19 15 30 -12 51
-66 51 -40 0 -44 2 -44 25 0 23 3 25 53 25 63 0 80 10 75 41 -3 23 -7 24 -96
27 -70 2 -94 0 -97 -11z"/>
<path d="M4012 4228 c-8 -8 -12 -56 -12 -149 0 -112 3 -139 16 -150 11 -9 20
-10 32 -2 13 7 18 30 22 92 l5 81 68 -90 c105 -138 127 -124 127 78 0 106 -3
132 -16 143 -11 9 -20 10 -32 2 -13 -8 -18 -30 -22 -92 l-5 -83 -69 91 c-67
89 -89 104 -114 79z"/>
<path d="M4503 4233 c-9 -3 -13 -34 -13 -104 0 -55 -5 -109 -10 -120 -12 -21
-41 -25 -69 -7 -47 29 -70 -26 -25 -61 51 -40 134 -17 160 44 9 22 14 70 14
133 0 113 -11 134 -57 115z"/>
<path d="M4735 4226 c-127 -58 -116 -258 16 -298 101 -30 191 42 191 153 0 54
-23 101 -63 132 -34 25 -105 31 -144 13z m114 -82 c46 -59 13 -154 -54 -154
-43 0 -75 38 -75 90 0 52 32 90 75 90 24 0 39 -7 54 -26z"/>
<path d="M5012 4228 c-20 -20 -14 -36 33 -102 41 -58 45 -68 45 -124 0 -67 18
-95 48 -75 12 7 18 29 22 74 4 55 11 72 48 123 44 62 53 100 26 110 -28 11
-33 7 -69 -50 l-36 -56 -37 53 c-39 56 -59 68 -80 47z"/>
<path d="M5492 4228 c-20 -20 -14 -36 33 -102 41 -58 45 -68 45 -124 0 -67 18
-95 48 -75 12 7 18 29 22 74 4 55 11 72 48 123 44 62 53 100 26 110 -28 11
-33 7 -69 -50 l-36 -56 -37 53 c-39 56 -59 68 -80 47z"/>
<path d="M5875 4226 c-127 -58 -116 -258 16 -298 101 -30 191 42 191 153 0 54
-23 101 -63 132 -34 25 -105 31 -144 13z m114 -82 c46 -59 13 -154 -54 -154
-43 0 -75 38 -75 90 0 52 32 90 75 90 24 0 39 -7 54 -26z"/>
<path d="M6187 4234 c-4 -4 -7 -56 -7 -116 0 -126 13 -162 65 -184 65 -27 125
-11 160 43 26 39 34 219 11 248 -12 16 -18 18 -33 9 -15 -9 -18 -27 -21 -110
-3 -109 -15 -134 -62 -134 -44 0 -54 22 -60 138 -5 98 -7 107 -25 110 -12 2
-24 0 -28 -4z"/>
<path d="M6542 4228 c-19 -19 -17 -282 3 -298 29 -24 50 -8 53 43 l3 48 47 -3
c44 -3 47 -5 53 -38 8 -36 31 -60 61 -60 24 0 34 25 20 53 -27 57 -32 88 -17
117 8 16 15 36 15 45 0 31 -31 82 -56 94 -33 15 -167 14 -182 -1z m160 -76 c3
-10 1 -28 -3 -40 -7 -18 -16 -22 -54 -22 l-45 0 0 40 0 40 49 0 c38 0 50 -4
53 -18z"/>
<path d="M7062 4232 c-9 -7 -12 -45 -10 -158 l3 -149 25 0 c24 0 25 2 28 78 2
42 6 77 10 77 4 -1 19 -19 34 -40 15 -22 35 -40 43 -40 8 0 28 18 43 40 15 21
30 39 34 40 4 0 8 -35 10 -77 3 -68 6 -78 22 -81 37 -7 46 24 46 158 0 136 -9
168 -46 156 -11 -3 -37 -35 -59 -71 -22 -36 -43 -65 -46 -65 -3 0 -27 32 -53
70 -45 69 -58 78 -84 62z"/>
<path d="M7462 4228 c-18 -18 -17 -282 2 -297 9 -8 44 -11 96 -9 67 2 85 6 94
21 17 28 -17 47 -81 47 -52 0 -53 0 -53 30 0 29 2 30 44 30 57 0 76 8 76 31 0
24 -30 39 -79 39 -37 0 -41 2 -41 25 0 24 3 25 53 25 64 0 98 19 81 47 -9 15
-27 19 -95 21 -57 2 -88 -1 -97 -10z"/>
<path d="M7822 4203 c-44 -89 -104 -253 -99 -267 11 -29 46 -19 64 19 16 34
19 35 72 35 53 0 57 -2 71 -33 16 -35 46 -43 63 -17 7 12 -7 53 -50 155 -47
114 -62 141 -80 143 -17 3 -26 -6 -41 -35z m58 -135 c0 -4 -11 -8 -25 -8 -23
0 -24 2 -13 26 11 24 13 25 25 8 7 -10 13 -21 13 -26z"/>
<path d="M8082 4228 c-18 -18 -17 -282 2 -297 9 -8 44 -11 96 -9 67 2 85 6 94
21 17 28 -17 47 -81 47 l-53 0 0 119 c0 99 -3 120 -16 125 -22 8 -28 8 -42 -6z"/>
<path d="M3080 3560 l0 -50 2875 0 2875 0 0 50 0 50 -2875 0 -2875 0 0 -50z"/>
</g>
</svg>
