<svg xmlns="http://www.w3.org/2000/svg" width="28" height="28" viewBox="0 0 55 56" fill="#14433D">
  <path fill-rule="evenodd" d="M24.988.032C11.23.032.038 11.225.038 24.982s11.192 24.951 24.95 24.951 24.951-11.194 24.951-24.951S38.746.032 24.988.032zm14.041 40.941c-1.218-7.206-6.359-12.752-12.702-13.442 4.376-.649 7.738-4.411 7.738-8.968 0-5.012-4.064-9.076-9.077-9.076s-9.076 4.064-9.076 9.076c0 4.557 3.361 8.319 7.737 8.968-6.343.69-11.484 6.236-12.702 13.442-4.443-3.905-7.255-9.624-7.255-15.991 0-11.742 9.553-21.296 21.296-21.296 11.743 0 21.296 9.554 21.296 21.296 0 6.367-2.812 12.086-7.255 15.991z"></path>
</svg>