<svg viewBox="0 0 24 24" xmlns="http://www.w3.org/2000/svg" class="dropzone_icon___Ixfr"><path d="M17.909 3.923 16.435 1.5h-8.87L6.066 3.923H1.6c-.884 0-1.6.723-1.6 1.615v14.539C0 21.415 1.075 22.5 2.4 22.5h19.2c1.325 0 2.4-1.085 2.4-2.423V5.538c0-.892-.716-1.615-1.6-1.615h-4.491Zm-2.369-.808 1.474 2.423H22.4v14.539a.804.804 0 0 1-.8.808H2.4a.804.804 0 0 1-.8-.808V5.538h5.354l1.498-2.423h7.088ZM12 18.462c3.093 0 5.6-2.532 5.6-5.654 0-3.123-2.507-5.654-5.6-5.654-3.093 0-5.6 2.531-5.6 5.654 0 3.122 2.507 5.654 5.6 5.654Zm0-1.616c-2.21 0-4-1.808-4-4.038 0-2.23 1.79-4.039 4-4.039s4 1.808 4 4.039c0 2.23-1.79 4.038-4 4.038ZM5.6 7.154H3.2v1.615h2.4V7.154Z" fill="currentColor"></path></svg>